{
  "accessors": [
    {
      "bufferView": 2,
      "componentType": 5126,
      "count": 10132,
      "max": [
        435.61761474609375,
        336.42669677734375,
        923.6369018554688
      ],
      "min": [
        0.0,
        0.0,
        0.0
      ],
      "type": "VEC3"
    },
    {
      "bufferView": 2,
      "byteOffset": 121584,
      "componentType": 5126,
      "count": 10132,
      "max": [
        0.9999512434005737,
        0.9992948770523071,
        0.9992238879203796
      ],
      "min": [
        -0.9999803304672241,
        -0.9997801184654236,
        -0.9999684691429138
      ],
      "type": "VEC3"
    },
    {
      "bufferView": 3,
      "componentType": 5126,
      "count": 10132,
      "max": [
        0.9999483823776245,
        0.9999050498008728,
        0.9998414516448975,
        1.0
      ],
      "min": [
        -0.9999933838844299,
        -0.999883234500885,
        -0.998801589012146,
        -1.0
      ],
      "type": "VEC4"
    },
    {
      "bufferView": 1,
      "componentType": 5126,
      "count": 10132,
      "max": [
        0.9996860027313232,
        0.9988170266151428
      ],
      "min": [
        0.001829999964684248,
        0.00107999995816499
      ],
      "type": "VEC2"
    },
    {
      "bufferView": 0,
      "componentType": 5125,
      "count": 44865,
      "type": "SCALAR"
    },
    {
      "bufferView": 2,
      "byteOffset": 243168,
      "componentType": 5126,
      "count": 57,
      "max": [
        391.8084411621094,
        239.846923828125,
        436.28594970703125
      ],
      "min": [
        367.7030944824219,
        62.25819778442383,
        202.35009765625
      ],
      "type": "VEC3"
    },
    {
      "bufferView": 2,
      "byteOffset": 243852,
      "componentType": 5126,
      "count": 57,
      "max": [
        0.9902248978614807,
        0.9747735857963562,
        0.5811081528663635
      ],
      "min": [
        -0.990695595741272,
        -0.7933383584022522,
        -0.9505892395973206
      ],
      "type": "VEC3"
    },
    {
      "bufferView": 3,
      "byteOffset": 162112,
      "componentType": 5126,
      "count": 57,
      "max": [
        0.980034351348877,
        0.9043641090393066,
        0.9170786142349243,
        1.0
      ],
      "min": [
        -0.9934965372085571,
        -0.878005862236023,
        -0.9054844379425049,
        -1.0
      ],
      "type": "VEC4"
    },
    {
      "bufferView": 1,
      "byteOffset": 81056,
      "componentType": 5126,
      "count": 57,
      "max": [
        0.09971000254154205,
        0.23847000300884247
      ],
      "min": [
        0.0027600000612437725,
        0.006180000025779009
      ],
      "type": "VEC2"
    },
    {
      "bufferView": 0,
      "byteOffset": 179460,
      "componentType": 5125,
      "count": 204,
      "type": "SCALAR"
    }
  ],
  "asset": {
    "extras": {
      "author": "Rebecca (https://sketchfab.com/rebecca)",
      "license": "CC-BY-4.0 (http://creativecommons.org/licenses/by/4.0/)",
      "source": "https://sketchfab.com/3d-models/brunhilda-eb9ca49ef3154206b314d41206b0ab79",
      "title": "Brunhilda"
    },
    "generator": "Sketchfab-12.68.0",
    "version": "2.0"
  },
  "bufferViews": [
    {
      "buffer": 0,
      "byteLength": 180276,
      "name": "floatBufferViews",
      "target": 34963
    },
    {
      "buffer": 0,
      "byteLength": 81512,
      "byteOffset": 180276,
      "byteStride": 8,
      "name": "floatBufferViews",
      "target": 34962
    },
    {
      "buffer": 0,
      "byteLength": 244536,
      "byteOffset": 261788,
      "byteStride": 12,
      "name": "floatBufferViews",
      "target": 34962
    },
    {
      "buffer": 0,
      "byteLength": 163024,
      "byteOffset": 506324,
      "byteStride": 16,
      "name": "floatBufferViews",
      "target": 34962
    }
  ],
  "buffers": [
    {
      "byteLength": 669348,
      "uri": "scene.bin"
    }
  ],
  "images": [
    {
      "uri": "textures/material_0_baseColor.png"
    },
    {
      "uri": "textures/material_0_metallicRoughness.png"
    },
    {
      "uri": "textures/material_0_normal.png"
    }
  ],
  "materials": [
    {
      "alphaCutoff": 0.11,
      "alphaMode": "MASK",
      "doubleSided": true,
      "name": "material_0",
      "normalTexture": {
        "index": 2
      },
      "occlusionTexture": {
        "index": 1
      },
      "pbrMetallicRoughness": {
        "baseColorTexture": {
          "index": 0
        },
        "metallicRoughnessTexture": {
          "index": 1
        }
      }
    }
  ],
  "meshes": [
    {
      "name": "Object_0",
      "primitives": [
        {
          "attributes": {
            "NORMAL": 1,
            "POSITION": 0,
            "TANGENT": 2,
            "TEXCOORD_0": 3
          },
          "indices": 4,
          "material": 0,
          "mode": 4
        }
      ]
    },
    {
      "name": "Object_1",
      "primitives": [
        {
          "attributes": {
            "NORMAL": 6,
            "POSITION": 5,
            "TANGENT": 7,
            "TEXCOORD_0": 8
          },
          "indices": 9,
          "material": 0,
          "mode": 4
        }
      ]
    }
  ],
  "nodes": [
    {
      "children": [
        1
      ],
      "matrix": [
        1.0,
        0.0,
        0.0,
        0.0,
        0.0,
        2.220446049250313e-16,
        -1.0,
        0.0,
        0.0,
        1.0,
        2.220446049250313e-16,
        0.0,
        0.0,
        0.0,
        0.0,
        1.0
      ],
      "name": "Sketchfab_model"
    },
    {
      "children": [
        2
      ],
      "matrix": [
        1.0,
        0.0,
        0.0,
        0.0,
        0.0,
        1.0,
        0.0,
        0.0,
        0.0,
        0.0,
        1.0,
        0.0,
        -152.32696533203125,
        -60.46238327026367,
        -520.0767822265625,
        1.0
      ],
      "name": "Brunhilda.obj.cleaner.gles"
    },
    {
      "children": [
        3,
        4
      ],
      "name": "Object_2"
    },
    {
      "mesh": 0,
      "name": "Object_3"
    },
    {
      "mesh": 1,
      "name": "Object_4"
    }
  ],
  "samplers": [
    {
      "magFilter": 9729,
      "minFilter": 9987,
      "wrapS": 10497,
      "wrapT": 10497
    }
  ],
  "scene": 0,
  "scenes": [
    {
      "name": "Sketchfab_Scene",
      "nodes": [
        0
      ]
    }
  ],
  "textures": [
    {
      "sampler": 0,
      "source": 0
    },
    {
      "sampler": 0,
      "source": 1
    },
    {
      "sampler": 0,
      "source": 2
    }
  ]
}
