{
  "accessors": [
    {
      "bufferView": 2,
      "componentType": 5126,
      "count": 5314,
      "max": [
        1.160336971282959,
        2.805340051651001,
        0.8412290215492249
      ],
      "min": [
        -0.6199910044670105,
        0.7766069769859314,
        -0.3150849938392639
      ],
      "type": "VEC3"
    },
    {
      "bufferView": 2,
      "byteOffset": 63768,
      "componentType": 5126,
      "count": 5314,
      "max": [
        0.9999346733093262,
        0.9998197555541992,
        0.9998879432678223
      ],
      "min": [
        -0.9998539090156555,
        -0.9987490773200989,
        -0.9989966154098511
      ],
      "type": "VEC3"
    },
    {
      "bufferView": 1,
      "componentType": 5126,
      "count": 5314,
      "max": [
        1.0,
        1.0
      ],
      "min": [
        0.0,
        0.0
      ],
      "type": "VEC2"
    },
    {
      "bufferView": 0,
      "componentType": 5125,
      "count": 6954,
      "type": "SCALAR"
    },
    {
      "bufferView": 2,
      "byteOffset": 127536,
      "componentType": 5126,
      "count": 1630,
      "max": [
        0.5557399988174438,
        2.504538059234619,
        0.28627800941467285
      ],
      "min": [
        -0.5557399988174438,
        -0.019903000444173813,
        -0.2869330048561096
      ],
      "type": "VEC3"
    },
    {
      "bufferView": 2,
      "byteOffset": 147096,
      "componentType": 5126,
      "count": 1630,
      "max": [
        0.9995818734169006,
        0.9861878752708435,
        0.9999268054962158
      ],
      "min": [
        -0.999973475933075,
        -0.9999616742134094,
        -0.9996548295021057
      ],
      "type": "VEC3"
    },
    {
      "bufferView": 1,
      "byteOffset": 42512,
      "componentType": 5126,
      "count": 1630,
      "max": [
        1.0,
        1.0
      ],
      "min": [
        0.0,
        0.0
      ],
      "type": "VEC2"
    },
    {
      "bufferView": 0,
      "byteOffset": 27816,
      "componentType": 5125,
      "count": 2388,
      "type": "SCALAR"
    },
    {
      "bufferView": 2,
      "byteOffset": 166656,
      "componentType": 5126,
      "count": 556,
      "max": [
        0.4923259913921356,
        1.7378339767456055,
        0.2894589900970459
      ],
      "min": [
        -0.5005239844322205,
        0.17856399714946747,
        -0.20330899953842163
      ],
      "type": "VEC3"
    },
    {
      "bufferView": 2,
      "byteOffset": 173328,
      "componentType": 5126,
      "count": 556,
      "max": [
        0.9992620348930359,
        0.9980174899101257,
        0.9980049729347229
      ],
      "min": [
        -0.9987310171127319,
        -0.9512293934822083,
        -0.9892103672027588
      ],
      "type": "VEC3"
    },
    {
      "bufferView": 1,
      "byteOffset": 55552,
      "componentType": 5126,
      "count": 556,
      "max": [
        1.0,
        1.0
      ],
      "min": [
        0.0,
        0.0
      ],
      "type": "VEC2"
    },
    {
      "bufferView": 0,
      "byteOffset": 37368,
      "componentType": 5125,
      "count": 780,
      "type": "SCALAR"
    },
    {
      "bufferView": 2,
      "byteOffset": 180000,
      "componentType": 5126,
      "count": 850,
      "max": [
        0.14242500066757202,
        2.9380199909210205,
        0.17691199481487274
      ],
      "min": [
        -0.1519629955291748,
        2.478679895401001,
        -0.16036100685596466
      ],
      "type": "VEC3"
    },
    {
      "bufferView": 2,
      "byteOffset": 190200,
      "componentType": 5126,
      "count": 850,
      "max": [
        0.9989882707595825,
        0.9804200530052185,
        0.9935016632080078
      ],
      "min": [
        -0.9978384375572205,
        -0.9964110255241394,
        -0.9993912577629089
      ],
      "type": "VEC3"
    },
    {
      "bufferView": 1,
      "byteOffset": 60000,
      "componentType": 5126,
      "count": 850,
      "max": [
        0.5,
        0.25
      ],
      "min": [
        0.5,
        0.25
      ],
      "type": "VEC2"
    },
    {
      "bufferView": 0,
      "byteOffset": 40488,
      "componentType": 5125,
      "count": 1158,
      "type": "SCALAR"
    },
    {
      "bufferView": 2,
      "byteOffset": 200400,
      "componentType": 5126,
      "count": 28,
      "max": [
        0.08198399841785431,
        2.720170021057129,
        0.11659400165081024
      ],
      "min": [
        -0.09079500287771225,
        2.7060129642486572,
        0.0855569988489151
      ],
      "type": "VEC3"
    },
    {
      "bufferView": 2,
      "byteOffset": 200736,
      "componentType": 5126,
      "count": 28,
      "max": [
        0.7938425540924072,
        0.1816689670085907,
        0.9468268752098083
      ],
      "min": [
        -0.8189643025398254,
        -0.482358455657959,
        0.5618139505386353
      ],
      "type": "VEC3"
    },
    {
      "bufferView": 1,
      "byteOffset": 66800,
      "componentType": 5126,
      "count": 28,
      "max": [
        0.5,
        0.25
      ],
      "min": [
        0.5,
        0.25
      ],
      "type": "VEC2"
    },
    {
      "bufferView": 0,
      "byteOffset": 45120,
      "componentType": 5125,
      "count": 36,
      "type": "SCALAR"
    },
    {
      "bufferView": 2,
      "byteOffset": 201072,
      "componentType": 5126,
      "count": 112,
      "max": [
        0.0630360022187233,
        2.721609115600586,
        0.11930199712514877
      ],
      "min": [
        -0.07257399708032608,
        2.69956111907959,
        0.10913299769163132
      ],
      "type": "VEC3"
    },
    {
      "bufferView": 2,
      "byteOffset": 202416,
      "componentType": 5126,
      "count": 112,
      "max": [
        0.8017187118530273,
        0.35880038142204285,
        0.9903507232666016
      ],
      "min": [
        -0.8078024983406067,
        -0.7195383906364441,
        0.5206676721572876
      ],
      "type": "VEC3"
    },
    {
      "bufferView": 1,
      "byteOffset": 67024,
      "componentType": 5126,
      "count": 112,
      "max": [
        0.5,
        0.25
      ],
      "min": [
        0.5,
        0.25
      ],
      "type": "VEC2"
    },
    {
      "bufferView": 0,
      "byteOffset": 45264,
      "componentType": 5125,
      "count": 144,
      "type": "SCALAR"
    },
    {
      "bufferView": 2,
      "byteOffset": 203760,
      "componentType": 5126,
      "count": 382,
      "max": [
        0.6799700260162354,
        2.5190930366516113,
        -0.015842000022530556
      ],
      "min": [
        -0.4955280125141144,
        0.8719630241394043,
        -0.47577399015426636
      ],
      "type": "VEC3"
    },
    {
      "bufferView": 2,
      "byteOffset": 208344,
      "componentType": 5126,
      "count": 382,
      "max": [
        0.9841172099113464,
        0.974042534828186,
        0.9998454451560974
      ],
      "min": [
        -0.995689332485199,
        -0.9997828006744385,
        -0.9996023774147034
      ],
      "type": "VEC3"
    },
    {
      "bufferView": 1,
      "byteOffset": 67920,
      "componentType": 5126,
      "count": 382,
      "max": [
        0.995048999786377,
        0.995048999786377
      ],
      "min": [
        0.00494999997317791,
        0.00494999997317791
      ],
      "type": "VEC2"
    },
    {
      "bufferView": 0,
      "byteOffset": 45840,
      "componentType": 5125,
      "count": 516,
      "type": "SCALAR"
    },
    {
      "bufferView": 2,
      "byteOffset": 212928,
      "componentType": 5126,
      "count": 834,
      "max": [
        1.1726460456848145,
        2.2382869720458984,
        0.8340539932250977
      ],
      "min": [
        -0.4636240005493164,
        1.5562080144882202,
        -0.1918340027332306
      ],
      "type": "VEC3"
    },
    {
      "bufferView": 2,
      "byteOffset": 222936,
      "componentType": 5126,
      "count": 834,
      "max": [
        0.9957210421562195,
        0.9988406896591187,
        0.989088773727417
      ],
      "min": [
        -0.995271623134613,
        -0.9992720484733582,
        -0.9972135424613953
      ],
      "type": "VEC3"
    },
    {
      "bufferView": 1,
      "byteOffset": 70976,
      "componentType": 5126,
      "count": 834,
      "max": [
        0.995048999786377,
        0.995048999786377
      ],
      "min": [
        0.00494999997317791,
        0.00494999997317791
      ],
      "type": "VEC2"
    },
    {
      "bufferView": 0,
      "byteOffset": 47904,
      "componentType": 5125,
      "count": 1194,
      "type": "SCALAR"
    }
  ],
  "asset": {
    "extras": {
      "author": "DavidA3D (https://sketchfab.com/DavidA3D)",
      "license": "CC-BY-NC-4.0 (http://creativecommons.org/licenses/by-nc/4.0/)",
      "source": "https://sketchfab.com/3d-models/zeus-sergi-constance-a2a05027407241279caf33d53234fb69",
      "title": "Zeus (Sergi Constance)"
    },
    "generator": "Sketchfab-12.67.0",
    "version": "2.0"
  },
  "bufferViews": [
    {
      "buffer": 0,
      "byteLength": 52680,
      "name": "floatBufferViews",
      "target": 34963
    },
    {
      "buffer": 0,
      "byteLength": 77648,
      "byteOffset": 52680,
      "byteStride": 8,
      "name": "floatBufferViews",
      "target": 34962
    },
    {
      "buffer": 0,
      "byteLength": 232944,
      "byteOffset": 130328,
      "byteStride": 12,
      "name": "floatBufferViews",
      "target": 34962
    }
  ],
  "buffers": [
    {
      "byteLength": 363272,
      "uri": "scene.bin"
    }
  ],
  "materials": [
    {
      "doubleSided": true,
      "name": "SkinTan",
      "pbrMetallicRoughness": {
        "baseColorFactor": [
          0.686275,
          0.541176,
          0.360784,
          1.0
        ],
        "metallicFactor": 0.0,
        "roughnessFactor": 0.8925200328344549
      }
    },
    {
      "doubleSided": true,
      "name": "LeatherDark",
      "pbrMetallicRoughness": {
        "baseColorFactor": [
          0.160784,
          0.133333,
          0.117647,
          1.0
        ],
        "metallicFactor": 0.7456173780487805,
        "roughnessFactor": 0.6053734756097561
      }
    },
    {
      "doubleSided": true,
      "name": "Brass",
      "pbrMetallicRoughness": {
        "baseColorFactor": [
          0.45098,
          0.435294,
          0.196078,
          1.0
        ],
        "roughnessFactor": 0.2883003048780488
      }
    },
    {
      "doubleSided": true,
      "name": "Hair",
      "pbrMetallicRoughness": {
        "baseColorFactor": [
          0.101961,
          0.082353,
          0.043137,
          1.0
        ],
        "metallicFactor": 0.0,
        "roughnessFactor": 0.9837794654058536
      }
    },
    {
      "doubleSided": true,
      "name": "EyeWhites",
      "pbrMetallicRoughness": {
        "baseColorFactor": [
          0.8,
          0.8,
          0.8,
          1.0
        ],
        "metallicFactor": 0.0,
        "roughnessFactor": 0.4895198170731707
      }
    },
    {
      "doubleSided": true,
      "name": "Eyes",
      "pbrMetallicRoughness": {
        "baseColorFactor": [
          0.054902,
          0.0,
          0.0,
          1.0
        ],
        "roughnessFactor": 0.5565929878048781
      }
    },
    {
      "doubleSided": true,
      "name": "AresFur",
      "pbrMetallicRoughness": {
        "baseColorFactor": [
          0.490196,
          0.443137,
          0.254902,
          1.0
        ],
        "metallicFactor": 0.0,
        "roughnessFactor": 0.9154866412201159
      }
    },
    {
      "doubleSided": true,
      "emissiveFactor": [
        1.0,
        1.0,
        0.28863290822882726
      ],
      "name": "Lightning",
      "pbrMetallicRoughness": {
        "baseColorFactor": [
          1.0,
          0.968627,
          0.4745099999999999,
          1.0
        ],
        "metallicFactor": 0.0,
        "roughnessFactor": 0.8178860419560761
      }
    }
  ],
  "meshes": [
    {
      "name": "Zeus.obj_SkinTan_0",
      "primitives": [
        {
          "attributes": {
            "NORMAL": 1,
            "POSITION": 0,
            "TEXCOORD_0": 2
          },
          "indices": 3,
          "material": 0,
          "mode": 4
        }
      ]
    },
    {
      "name": "Zeus.obj_LeatherDark_0",
      "primitives": [
        {
          "attributes": {
            "NORMAL": 5,
            "POSITION": 4,
            "TEXCOORD_0": 6
          },
          "indices": 7,
          "material": 1,
          "mode": 4
        }
      ]
    },
    {
      "name": "Zeus.obj_Brass_0",
      "primitives": [
        {
          "attributes": {
            "NORMAL": 9,
            "POSITION": 8,
            "TEXCOORD_0": 10
          },
          "indices": 11,
          "material": 2,
          "mode": 4
        }
      ]
    },
    {
      "name": "Zeus.obj_Hair_0",
      "primitives": [
        {
          "attributes": {
            "NORMAL": 13,
            "POSITION": 12,
            "TEXCOORD_0": 14
          },
          "indices": 15,
          "material": 3,
          "mode": 4
        }
      ]
    },
    {
      "name": "Zeus.obj_EyeWhites_0",
      "primitives": [
        {
          "attributes": {
            "NORMAL": 17,
            "POSITION": 16,
            "TEXCOORD_0": 18
          },
          "indices": 19,
          "material": 4,
          "mode": 4
        }
      ]
    },
    {
      "name": "Zeus.obj_Eyes_0",
      "primitives": [
        {
          "attributes": {
            "NORMAL": 21,
            "POSITION": 20,
            "TEXCOORD_0": 22
          },
          "indices": 23,
          "material": 5,
          "mode": 4
        }
      ]
    },
    {
      "name": "Zeus.obj_AresFur_0",
      "primitives": [
        {
          "attributes": {
            "NORMAL": 25,
            "POSITION": 24,
            "TEXCOORD_0": 26
          },
          "indices": 27,
          "material": 6,
          "mode": 4
        }
      ]
    },
    {
      "name": "Zeus.obj_Lightning_0",
      "primitives": [
        {
          "attributes": {
            "NORMAL": 29,
            "POSITION": 28,
            "TEXCOORD_0": 30
          },
          "indices": 31,
          "material": 7,
          "mode": 4
        }
      ]
    }
  ],
  "nodes": [
    {
      "children": [
        1
      ],
      "matrix": [
        1.0,
        0.0,
        0.0,
        0.0,
        0.0,
        2.220446049250313e-16,
        -1.0,
        0.0,
        0.0,
        1.0,
        2.220446049250313e-16,
        0.0,
        0.0,
        0.0,
        0.0,
        1.0
      ],
      "name": "Sketchfab_model"
    },
    {
      "children": [
        2
      ],
      "matrix": [
        1.0,
        0.0,
        0.0,
        0.0,
        0.0,
        0.0,
        1.0,
        0.0,
        0.0,
        -1.0,
        0.0,
        0.0,
        0.0,
        0.0,
        0.0,
        1.0
      ],
      "name": "9c228cf5905942a48104858406b2d62c.fbx"
    },
    {
      "children": [
        3
      ],
      "name": "RootNode"
    },
    {
      "children": [
        4,
        5,
        6,
        7,
        8,
        9,
        10,
        11
      ],
      "matrix": [
        100.0,
        0.0,
        0.0,
        0.0,
        0.0,
        99.99999999999866,
        1.6292067073209114e-05,
        0.0,
        0.0,
        -1.6292067073209114e-05,
        99.99999999999866,
        0.0,
        0.0,
        0.0,
        0.0,
        1.0
      ],
      "name": "Zeus.obj"
    },
    {
      "mesh": 0,
      "name": "Zeus.obj_SkinTan_0"
    },
    {
      "mesh": 1,
      "name": "Zeus.obj_LeatherDark_0"
    },
    {
      "mesh": 2,
      "name": "Zeus.obj_Brass_0"
    },
    {
      "mesh": 3,
      "name": "Zeus.obj_Hair_0"
    },
    {
      "mesh": 4,
      "name": "Zeus.obj_EyeWhites_0"
    },
    {
      "mesh": 5,
      "name": "Zeus.obj_Eyes_0"
    },
    {
      "mesh": 6,
      "name": "Zeus.obj_AresFur_0"
    },
    {
      "mesh": 7,
      "name": "Zeus.obj_Lightning_0"
    }
  ],
  "scene": 0,
  "scenes": [
    {
      "name": "Sketchfab_Scene",
      "nodes": [
        0
      ]
    }
  ]
}
